HIERARCHY
ROOT Hips
{
  OFFSET -5.451 -12.022 -290.002
  CHANNELS 6 Xposition Yposition Zposition Zrotation Xrotation Yrotation
  JOINT LeftUpLeg
  {
    OFFSET 7.410 -7.662 2.970
    CHANNELS 6 Xposition Yposition Zposition Zrotation Xrotation Yrotation
    JOINT LeftLeg
    {
      OFFSET -0.000 -49.525 0.000
      CHANNELS 6 Xposition Yposition Zposition Zrotation Xrotation Yrotation
      JOINT LeftFoot
      {
        OFFSET 0.000 -40.417 -0.000
        CHANNELS 6 Xposition Yposition Zposition Zrotation Xrotation Yrotation
        End Site
        {
          OFFSET -0.000 -7.279 4.203
        }
      }
    }
  }
  JOINT RightUpLeg
  {
    OFFSET -7.747 -6.301 2.088
    CHANNELS 6 Xposition Yposition Zposition Zrotation Xrotation Yrotation
    JOINT RightLeg
    {
      OFFSET -0.000 -48.231 0.000
      CHANNELS 6 Xposition Yposition Zposition Zrotation Xrotation Yrotation
      JOINT RightFoot
      {
        OFFSET 0.000 -39.816 -0.000
        CHANNELS 6 Xposition Yposition Zposition Zrotation Xrotation Yrotation
        End Site
        {
          OFFSET -0.000 -7.553 4.361
        }
      }
    }
  }
  JOINT Spine
  {
    OFFSET 0.000 5.415 -5.415
    CHANNELS 6 Xposition Yposition Zposition Zrotation Xrotation Yrotation
    JOINT LeftShoulder
    {
      OFFSET -0.000 35.646 0.000
      CHANNELS 6 Xposition Yposition Zposition Zrotation Xrotation Yrotation
      JOINT LeftArm
      {
        OFFSET 20.763 0.000 -0.000
        CHANNELS 6 Xposition Yposition Zposition Zrotation Xrotation Yrotation
        JOINT LeftForeArm
        {
          OFFSET 25.456 0.000 0.000
          CHANNELS 6 Xposition Yposition Zposition Zrotation Xrotation Yrotation
          JOINT LeftHand
          {
            OFFSET 24.494 0.000 -0.000
            CHANNELS 6 Xposition Yposition Zposition Zrotation Xrotation Yrotation
            JOINT LeftHandThumb1
            {
            OFFSET 4.970 -0.620 3.390
            CHANNELS 6 Xposition Yposition Zposition Zrotation Xrotation Yrotation
              JOINT LeftHandThumb2
              {
              OFFSET 2.150 -0.000 0.000
              CHANNELS 6 Xposition Yposition Zposition Zrotation Xrotation Yrotation
                JOINT LeftHandThumb3
                {
                OFFSET 2.200 -0.000 0.000
                CHANNELS 6 Xposition Yposition Zposition Zrotation Xrotation Yrotation
                  JOINT LeftHandThumb4
                  {
                  OFFSET 1.700 -0.000 0.000
                  CHANNELS 6 Xposition Yposition Zposition Zrotation Xrotation Yrotation
                  }
                }
              }
            }
            JOINT LeftHandIndex1
            {
            OFFSET 8.730 0.680 2.070
            CHANNELS 6 Xposition Yposition Zposition Zrotation Xrotation Yrotation
              JOINT LeftHandIndex2
              {
              OFFSET 2.670 -0.000 0.000
              CHANNELS 6 Xposition Yposition Zposition Zrotation Xrotation Yrotation
                JOINT LeftHandIndex3
                {
                OFFSET 2.130 -0.000 0.000
                CHANNELS 6 Xposition Yposition Zposition Zrotation Xrotation Yrotation
                  JOINT LeftHandIndex4
                  {
                  OFFSET 1.800 -0.000 0.000
                  CHANNELS 6 Xposition Yposition Zposition Zrotation Xrotation Yrotation
                  }
                }
              }
            }
            JOINT LeftHandMiddle1
            {
            OFFSET 9.220 0.670 0.550
            CHANNELS 6 Xposition Yposition Zposition Zrotation Xrotation Yrotation
              JOINT LeftHandMiddle2
              {
              OFFSET 2.660 -0.000 0.000
              CHANNELS 6 Xposition Yposition Zposition Zrotation Xrotation Yrotation
                JOINT LeftHandMiddle3
                {
                OFFSET 2.280 -0.000 0.000
                CHANNELS 6 Xposition Yposition Zposition Zrotation Xrotation Yrotation
                  JOINT LeftHandMiddle4
                  {
                  OFFSET 1.500 -0.000 0.000
                  CHANNELS 6 Xposition Yposition Zposition Zrotation Xrotation Yrotation
                  }
                }
              }
            }
            JOINT LeftHandRing1
            {
            OFFSET 9.250 0.670 -1.130
            CHANNELS 6 Xposition Yposition Zposition Zrotation Xrotation Yrotation
              JOINT LeftHandRing2
              {
              OFFSET 2.470 -0.000 0.000
              CHANNELS 6 Xposition Yposition Zposition Zrotation Xrotation Yrotation
                JOINT LeftHandRing3
                {
                OFFSET 2.210 -0.000 0.000
                CHANNELS 6 Xposition Yposition Zposition Zrotation Xrotation Yrotation
                  JOINT LeftHandRing4
                  {
                  OFFSET 1.800 -0.000 0.000
                  CHANNELS 6 Xposition Yposition Zposition Zrotation Xrotation Yrotation
                  }
                }
              }
            }
            JOINT LeftHandPinky1
            {
            OFFSET 9.350 0.660 -2.720
            CHANNELS 6 Xposition Yposition Zposition Zrotation Xrotation Yrotation
              JOINT LeftHandPinky2
              {
              OFFSET 1.630 -0.000 0.000
              CHANNELS 6 Xposition Yposition Zposition Zrotation Xrotation Yrotation
                JOINT LeftHandPinky3
                {
                OFFSET 1.710 -0.000 0.000
                CHANNELS 6 Xposition Yposition Zposition Zrotation Xrotation Yrotation
                  JOINT LeftHandPinky4
                  {
                  OFFSET 1.800 -0.000 0.000
                  CHANNELS 6 Xposition Yposition Zposition Zrotation Xrotation Yrotation
                  }
                }
              }
            }
          }
        }
      }
    }
    JOINT RightShoulder
    {
      OFFSET -0.000 35.646 0.000
      CHANNELS 6 Xposition Yposition Zposition Zrotation Xrotation Yrotation
      JOINT RightArm
      {
        OFFSET -18.346 0.000 -0.000
        CHANNELS 6 Xposition Yposition Zposition Zrotation Xrotation Yrotation
        JOINT RightForeArm
        {
          OFFSET -26.515 0.000 0.000
          CHANNELS 6 Xposition Yposition Zposition Zrotation Xrotation Yrotation
          JOINT RightHand
          {
            OFFSET -25.338 0.000 -0.000
            CHANNELS 6 Xposition Yposition Zposition Zrotation Xrotation Yrotation
            JOINT RightHandThumb1
            {
            OFFSET -4.970 -0.620 3.390
            CHANNELS 6 Xposition Yposition Zposition Zrotation Xrotation Yrotation
              JOINT RightHandThumb2
              {
              OFFSET -2.150 0.000 0.000
              CHANNELS 6 Xposition Yposition Zposition Zrotation Xrotation Yrotation
                JOINT RightHandThumb3
                {
                OFFSET -2.200 0.000 0.000
                CHANNELS 6 Xposition Yposition Zposition Zrotation Xrotation Yrotation
                  JOINT RightHandThumb4
                  {
                  OFFSET -1.700 0.000 0.000
                  CHANNELS 6 Xposition Yposition Zposition Zrotation Xrotation Yrotation
                  }
                }
              }
            }
            JOINT RightHandIndex1
            {
            OFFSET -8.730 0.680 2.070
            CHANNELS 6 Xposition Yposition Zposition Zrotation Xrotation Yrotation
              JOINT RightHandIndex2
              {
              OFFSET -2.670 0.000 0.000
              CHANNELS 6 Xposition Yposition Zposition Zrotation Xrotation Yrotation
                JOINT RightHandIndex3
                {
                OFFSET -2.130 0.000 0.000
                CHANNELS 6 Xposition Yposition Zposition Zrotation Xrotation Yrotation
                  JOINT RightHandIndex4
                  {
                  OFFSET -1.800 0.000 0.000
                  CHANNELS 6 Xposition Yposition Zposition Zrotation Xrotation Yrotation
                  }
                }
              }
            }
            JOINT RightHandMiddle1
            {
            OFFSET -9.220 0.670 0.550
            CHANNELS 6 Xposition Yposition Zposition Zrotation Xrotation Yrotation
              JOINT RightHandMiddle2
              {
              OFFSET -2.660 0.000 0.000
              CHANNELS 6 Xposition Yposition Zposition Zrotation Xrotation Yrotation
                JOINT RightHandMiddle3
                {
                OFFSET -2.280 0.000 0.000
                CHANNELS 6 Xposition Yposition Zposition Zrotation Xrotation Yrotation
                  JOINT RightHandMiddle4
                  {
                  OFFSET -1.500 0.000 0.000
                  CHANNELS 6 Xposition Yposition Zposition Zrotation Xrotation Yrotation
                  }
                }
              }
            }
            JOINT RightHandRing1
            {
            OFFSET -9.250 0.670 -1.130
            CHANNELS 6 Xposition Yposition Zposition Zrotation Xrotation Yrotation
              JOINT RightHandRing2
              {
              OFFSET -2.470 0.000 0.000
              CHANNELS 6 Xposition Yposition Zposition Zrotation Xrotation Yrotation
                JOINT RightHandRing3
                {
                OFFSET -2.210 0.000 0.000
                CHANNELS 6 Xposition Yposition Zposition Zrotation Xrotation Yrotation
                  JOINT RightHandRing4
                  {
                  OFFSET -1.800 0.000 0.000
                  CHANNELS 6 Xposition Yposition Zposition Zrotation Xrotation Yrotation
                  }
                }
              }
            }
            JOINT RightHandPinky1
            {
            OFFSET -9.350 0.660 -2.720
            CHANNELS 6 Xposition Yposition Zposition Zrotation Xrotation Yrotation
              JOINT RightHandPinky2
              {
              OFFSET -1.630 0.000 0.000
              CHANNELS 6 Xposition Yposition Zposition Zrotation Xrotation Yrotation
                JOINT RightHandPinky3
                {
                OFFSET -1.710 0.000 0.000
                CHANNELS 6 Xposition Yposition Zposition Zrotation Xrotation Yrotation
                  JOINT RightHandPinky4
                  {
                  OFFSET -1.800 0.000 0.000
                  CHANNELS 6 Xposition Yposition Zposition Zrotation Xrotation Yrotation
                  }
                }
              }
            }
          }
        }
      }
    }
    JOINT Neck
    {
      OFFSET -0.000 35.646 0.000
      CHANNELS 6 Xposition Yposition Zposition Zrotation Xrotation Yrotation
      JOINT Head
      {
        OFFSET -0.000 19.669 -0.000
        CHANNELS 6 Xposition Yposition Zposition Zrotation Xrotation Yrotation
        End Site
        {
          OFFSET -0.000 0.079 -0.000
        }
      }
    }
  }
}
MOTION
Frames:	6
Frame Time:	0.0333333
-13.1622 -12.6662 -306.955 -2.68 2.29706 21.1634 7.57394 -7.91226 2.665 2.03444 -7.11167 -5.83699 5.96046e-06 -51.709 -9.53674e-05 -5.82366 6.67295 0.679038 1.19209e-05 -41.8479 2.38419e-05 11.6509 1.10905 6.61145 -7.80634 -7.01089 0.90425 -9.45672 -16.3759 -8.38792 -1.19209e-05 -48.7997 2.38419e-05 5.53932 14.144 2.6414e-06 0 -41.3808 2.38419e-05 4.45491 -7.12294 2.86335 1.78814e-05 5.87876 -5.87876 -0.544786 -5.17501 -0.874516 5.96046e-06 35.6457 4.76837e-05 -29.433 8.53774e-06 -5.16096 21.3654 5.96046e-06 -4.76837e-05 -45.601 39.391 -9.50197 26.6948 -1.19209e-05 -2.38419e-05 -2.99995e-06 1.70755e-06 -21.2766 25.6381 1.19209e-05 -7.15256e-05 -8.60537 0.0365928 -0.797675 0.0062 0.0497 0.0339 0 0 0 0 0.0215 0 0 0 0 0 0.022 0 0 0 0 0 0.017 0 0 0 0 -0.0068 0.0873 0.0207 0 0 0 0 0.0267 0 0 0 0 0 0.0213 0 0 0 0 0 0.018 0 0 0 0 -0.0067 0.0922 0.0055 0 0 0 0 0.0266 0 0 0 0 0 0.0228 0 0 0 0 0 0.015 0 0 0 0 -0.0067 0.0925 -0.0113 0 0 0 0 0.0247 0 0 0 0 0 0.0221 0 0 0 0 0 0.018 0 0 0 0 -0.0066 0.0935 -0.0272 0 0 0 0 0.0163 0 0 0 0 0 0.0171 0 0 0 0 0 0.018 0 0 0 0 5.96046e-06 35.6457 4.76837e-05 31.4941 -2.56132e-06 5.63152 -19.5852 1.3411e-05 0 38.6322 41.5213 5.59721 -24.0969 -2.38419e-05 -2.38419e-05 4.0721e-06 -1.02453e-05 30.5858 -28.6076 0 1.19209e-05 7.15097 0.000140879 0.518653 -0.0062 0.0497 0.0339 0 0 0 0 0.0215 0 0 0 0 0 0.022 0 0 0 0 0 0.017 0 0 0 0 0.0068 0.0873 0.0207 0 0 0 0 0.0267 0 0 0 0 0 0.0213 0 0 0 0 0 0.018 0 0 0 0 0.0067 0.0922 0.0055 0 0 0 0 0.0266 0 0 0 0 0 0.0228 0 0 0 0 0 0.015 0 0 0 0 0.0067 0.0925 -0.0113 0 0 0 0 0.0247 0 0 0 0 0 0.0221 0 0 0 0 0 0.018 0 0 0 0 0.0066 0.0935 -0.0272 0 0 0 0 0.0163 0 0 0 0 0 0.0171 0 0 0 0 0 0.018 0 0 0 0 5.96046e-06 35.6457 4.76837e-05 -5.79748 9.03112 0.913072 -1.78814e-05 19.0474 -7.15256e-05 1.17394e-05 -8.53774e-06 1.70755e-06 
-13.5802 -12.774 -306.609 -2.66809 1.74871 21.7391 7.53336 -7.89355 2.6686 2.58639 -7.39125 -5.91937 -5.96046e-06 -51.5864 0 -6.17578 8.14709 0.878527 1.78814e-05 -41.9777 4.76837e-05 11.4252 0.732017 6.55899 -7.76588 -6.97995 0.867105 -9.28932 -15.8142 -8.51777 0 -48.5605 -7.15256e-05 5.60223 13.8998 -8.79529e-07 0 -41.4763 4.76837e-05 5.29942 -17.8076 4.00185 -2.38419e-05 5.92029 -5.92029 -0.421013 -4.91632 -0.986157 1.19209e-05 35.6457 0 -29.7599 1.45142e-05 -5.59788 21.3818 -1.19209e-05 4.76837e-05 -46.8746 38.9454 -6.90826 26.8252 1.19209e-05 9.53674e-05 -3.12537e-06 -3.4151e-06 -20.8187 25.1424 0 4.76837e-05 -9.2666 0.0263548 -0.36729 0.0062 0.0497 0.0339 0 0 0 0 0.0215 0 0 0 0 0 0.022 0 0 0 0 0 0.017 0 0 0 0 -0.0068 0.0873 0.0207 0 0 0 0 0.0267 0 0 0 0 0 0.0213 0 0 0 0 0 0.018 0 0 0 0 -0.0067 0.0922 0.0055 0 0 0 0 0.0266 0 0 0 0 0 0.0228 0 0 0 0 0 0.015 0 0 0 0 -0.0067 0.0925 -0.0113 0 0 0 0 0.0247 0 0 0 0 0 0.0221 0 0 0 0 0 0.018 0 0 0 0 -0.0066 0.0935 -0.0272 0 0 0 0 0.0163 0 0 0 0 0 0.0171 0 0 0 0 0 0.018 0 0 0 0 1.19209e-05 35.6457 0 31.4997 -5.12264e-06 6.14068 -19.498 3.72529e-06 0 36.5524 45.8141 7.10584 -24.2304 4.76837e-05 1.19209e-05 4.016e-06 1.36604e-05 29.6345 -28.6206 -2.38419e-05 -1.19209e-05 6.61876 0.00961376 0.899939 -0.0062 0.0497 0.0339 0 0 0 0 0.0215 0 0 0 0 0 0.022 0 0 0 0 0 0.017 0 0 0 0 0.0068 0.0873 0.0207 0 0 0 0 0.0267 0 0 0 0 0 0.0213 0 0 0 0 0 0.018 0 0 0 0 0.0067 0.0922 0.0055 0 0 0 0 0.0266 0 0 0 0 0 0.0228 0 0 0 0 0 0.015 0 0 0 0 0.0067 0.0925 -0.0113 0 0 0 0 0.0247 0 0 0 0 0 0.0221 0 0 0 0 0 0.018 0 0 0 0 0.0066 0.0935 -0.0272 0 0 0 0 0.0163 0 0 0 0 0 0.0171 0 0 0 0 0 0.018 0 0 0 0 1.19209e-05 35.6457 0 -6.08729 9.47862 1.00613 -5.96046e-06 19.0652 0 1.10991e-05 -1.17394e-05 1.70755e-06 
-13.5802 -12.774 -306.609 -2.66809 1.74871 21.7391 7.53336 -7.89355 2.6686 2.58639 -7.39125 -5.91937 -5.96046e-06 -51.5864 0 -6.17578 8.14709 0.878527 1.78814e-05 -41.9777 4.76837e-05 11.4252 0.732017 6.55899 -7.76588 -6.97995 0.867105 -9.28932 -15.8142 -8.51777 0 -48.5605 -7.15256e-05 5.60223 13.8998 -8.79529e-07 0 -41.4763 4.76837e-05 5.29942 -17.8076 4.00185 -2.38419e-05 5.92029 -5.92029 -0.421013 -4.91632 -0.986157 1.19209e-05 35.6457 0 -29.7599 1.45142e-05 -5.59788 21.3818 -1.19209e-05 4.76837e-05 -46.8746 38.9454 -6.90826 26.8252 1.19209e-05 9.53674e-05 -3.12537e-06 -3.4151e-06 -20.8187 25.1424 0 4.76837e-05 -9.2666 0.0263548 -0.36729 0.0062 0.0497 0.0339 0 0 0 0 0.0215 0 0 0 0 0 0.022 0 0 0 0 0 0.017 0 0 0 0 -0.0068 0.0873 0.0207 0 0 0 0 0.0267 0 0 0 0 0 0.0213 0 0 0 0 0 0.018 0 0 0 0 -0.0067 0.0922 0.0055 0 0 0 0 0.0266 0 0 0 0 0 0.0228 0 0 0 0 0 0.015 0 0 0 0 -0.0067 0.0925 -0.0113 0 0 0 0 0.0247 0 0 0 0 0 0.0221 0 0 0 0 0 0.018 0 0 0 0 -0.0066 0.0935 -0.0272 0 0 0 0 0.0163 0 0 0 0 0 0.0171 0 0 0 0 0 0.018 0 0 0 0 1.19209e-05 35.6457 0 31.4997 -5.12264e-06 6.14068 -19.498 3.72529e-06 0 36.5524 45.8141 7.10584 -24.2304 4.76837e-05 1.19209e-05 4.016e-06 1.36604e-05 29.6345 -28.6206 -2.38419e-05 -1.19209e-05 6.61876 0.00961376 0.899939 -0.0062 0.0497 0.0339 0 0 0 0 0.0215 0 0 0 0 0 0.022 0 0 0 0 0 0.017 0 0 0 0 0.0068 0.0873 0.0207 0 0 0 0 0.0267 0 0 0 0 0 0.0213 0 0 0 0 0 0.018 0 0 0 0 0.0067 0.0922 0.0055 0 0 0 0 0.0266 0 0 0 0 0 0.0228 0 0 0 0 0 0.015 0 0 0 0 0.0067 0.0925 -0.0113 0 0 0 0 0.0247 0 0 0 0 0 0.0221 0 0 0 0 0 0.018 0 0 0 0 0.0066 0.0935 -0.0272 0 0 0 0 0.0163 0 0 0 0 0 0.0171 0 0 0 0 0 0.018 0 0 0 0 1.19209e-05 35.6457 0 -6.08729 9.47862 1.00613 -5.96046e-06 19.0652 0 1.10991e-05 -1.17394e-05 1.70755e-06 
-13.8463 -12.8337 -306.398 -2.59098 1.54278 22.1172 7.50555 -7.89798 2.66635 2.81985 -7.65262 -5.87555 0 -51.5276 -4.76837e-05 -6.33934 8.88566 0.983106 5.96046e-06 -41.9575 -4.76837e-05 11.3243 0.926865 6.45995 -7.74981 -6.95591 0.861764 -9.34145 -15.5374 -8.55079 -1.78814e-05 -48.4179 2.38419e-05 5.75796 13.7537 -8.78977e-07 0 -41.5377 -4.76837e-05 5.7026 -23.7234 4.68141 -1.19209e-05 5.94315 -5.94308 -0.296409 -4.70726 -1.07343 5.96046e-06 35.6457 2.38419e-05 -29.9472 1.10991e-05 -5.70839 21.4504 0 4.76837e-05 -47.9935 37.49 -5.46674 26.7772 -2.38419e-05 -2.38419e-05 2.62885e-07 -1.70755e-06 -20.8633 24.6131 1.19209e-05 0 -9.74602 0.0121589 0.234163 0.0062 0.0497 0.0339 0 0 0 0 0.0215 0 0 0 0 0 0.022 0 0 0 0 0 0.017 0 0 0 0 -0.0068 0.0873 0.0207 0 0 0 0 0.0267 0 0 0 0 0 0.0213 0 0 0 0 0 0.018 0 0 0 0 -0.0067 0.0922 0.0055 0 0 0 0 0.0266 0 0 0 0 0 0.0228 0 0 0 0 0 0.015 0 0 0 0 -0.0067 0.0925 -0.0113 0 0 0 0 0.0247 0 0 0 0 0 0.0221 0 0 0 0 0 0.018 0 0 0 0 -0.0066 0.0935 -0.0272 0 0 0 0 0.0163 0 0 0 0 0 0.0171 0 0 0 0 0 0.018 0 0 0 0 5.96046e-06 35.6457 2.38419e-05 31.4969 -3.41509e-06 6.31009 -19.4121 -2.98023e-06 -4.76837e-05 34.6805 48.1858 8.49173 -24.4023 4.76837e-05 0 -8.8573e-07 5.12264e-06 28.9851 -28.6429 -2.38419e-05 1.19209e-05 6.18892 0.0227222 1.43144 -0.0062 0.0497 0.0339 0 0 0 0 0.0215 0 0 0 0 0 0.022 0 0 0 0 0 0.017 0 0 0 0 0.0068 0.0873 0.0207 0 0 0 0 0.0267 0 0 0 0 0 0.0213 0 0 0 0 0 0.018 0 0 0 0 0.0067 0.0922 0.0055 0 0 0 0 0.0266 0 0 0 0 0 0.0228 0 0 0 0 0 0.015 0 0 0 0 0.0067 0.0925 -0.0113 0 0 0 0 0.0247 0 0 0 0 0 0.0221 0 0 0 0 0 0.018 0 0 0 0 0.0066 0.0935 -0.0272 0 0 0 0 0.0163 0 0 0 0 0 0.0171 0 0 0 0 0 0.018 0 0 0 0 5.96046e-06 35.6457 2.38419e-05 -6.68225 9.38439 1.09442 5.96046e-06 19.0441 -2.38419e-05 1.06722e-05 -1.15259e-05 5.12264e-06 
-14.0096 -12.8775 -306.242 -2.50088 1.51106 22.3776 7.49524 -7.8973 2.66769 2.88973 -7.84526 -5.88563 0 -51.5027 9.53674e-05 -6.43906 9.27085 1.04162 5.96046e-06 -41.9368 -2.38419e-05 11.3672 0.888987 6.4916 -7.74446 -6.93906 0.851154 -9.44666 -15.4299 -8.6138 -5.96046e-06 -48.3413 2.38419e-05 5.84683 13.6992 5.27264e-06 1.19209e-05 -41.5451 -4.76837e-05 5.51119 -23.9852 4.62757 -1.19209e-05 5.95695 -5.95703 -0.183328 -4.57834 -1.14654 -5.96046e-06 35.6457 2.38419e-05 -30.0183 1.28066e-05 -5.61739 21.5535 -5.96046e-06 4.76837e-05 -48.7978 36.0659 -4.77686 26.7441 -2.38419e-05 -2.38419e-05 -1.311e-06 -3.41509e-06 -21.001 24.3647 -1.19209e-05 4.76837e-05 -9.85476 0.00545233 0.497314 0.0062 0.0497 0.0339 0 0 0 0 0.0215 0 0 0 0 0 0.022 0 0 0 0 0 0.017 0 0 0 0 -0.0068 0.0873 0.0207 0 0 0 0 0.0267 0 0 0 0 0 0.0213 0 0 0 0 0 0.018 0 0 0 0 -0.0067 0.0922 0.0055 0 0 0 0 0.0266 0 0 0 0 0 0.0228 0 0 0 0 0 0.015 0 0 0 0 -0.0067 0.0925 -0.0113 0 0 0 0 0.0247 0 0 0 0 0 0.0221 0 0 0 0 0 0.018 0 0 0 0 -0.0066 0.0935 -0.0272 0 0 0 0 0.0163 0 0 0 0 0 0.0171 0 0 0 0 0 0.018 0 0 0 0 -5.96046e-06 35.6457 2.38419e-05 31.5363 2.56132e-06 6.2769 -19.2965 -2.98023e-06 -2.38419e-05 33.0839 49.7187 9.5907 -24.4256 -4.76837e-05 0 -2.41332e-06 8.53773e-07 28.6784 -28.6532 2.38419e-05 0 5.86202 0.0312321 1.83308 -0.0062 0.0497 0.0339 0 0 0 0 0.0215 0 0 0 0 0 0.022 0 0 0 0 0 0.017 0 0 0 0 0.0068 0.0873 0.0207 0 0 0 0 0.0267 0 0 0 0 0 0.0213 0 0 0 0 0 0.018 0 0 0 0 0.0067 0.0922 0.0055 0 0 0 0 0.0266 0 0 0 0 0 0.0228 0 0 0 0 0 0.015 0 0 0 0 0.0067 0.0925 -0.0113 0 0 0 0 0.0247 0 0 0 0 0 0.0221 0 0 0 0 0 0.018 0 0 0 0 0.0066 0.0935 -0.0272 0 0 0 0 0.0163 0 0 0 0 0 0.0171 0 0 0 0 0 0.018 0 0 0 0 -5.96046e-06 35.6457 2.38419e-05 -7.14011 9.12059 1.13755 5.96046e-06 19.1458 -4.76837e-05 9.81839e-06 -9.39151e-06 -1.70755e-06 
-14.08 -12.9034 -306.161 -2.44508 1.51945 22.5078 7.48931 -7.89478 2.66466 2.9034 -7.94232 -5.8607 1.19209e-05 -51.4958 9.53674e-05 -6.45584 9.43821 1.06303 5.96046e-06 -41.8932 -9.53674e-05 11.3891 0.838203 6.514 -7.74412 -6.93518 0.85156 -9.52068 -15.39 -8.61317 -5.96046e-06 -48.3059 2.38419e-05 5.89496 13.6745 -7.02944e-06 2.38419e-05 -41.5343 0 5.38657 -23.6994 4.55225 2.38419e-05 5.96143 -5.96147 -0.131464 -4.48158 -1.16647 -5.96046e-06 35.6457 -2.38419e-05 -30.0481 1.10991e-05 -5.52749 21.5851 0 9.53674e-05 -49.1292 35.3444 -4.5493 26.7266 -1.78814e-05 4.76837e-05 -5.13935e-06 -8.53774e-06 -21.1798 24.2408 -1.19209e-05 -0.000119209 -9.91174 0.0049517 0.523246 0.0062 0.0497 0.0339 0 0 0 0 0.0215 0 0 0 0 0 0.022 0 0 0 0 0 0.017 0 0 0 0 -0.0068 0.0873 0.0207 0 0 0 0 0.0267 0 0 0 0 0 0.0213 0 0 0 0 0 0.018 0 0 0 0 -0.0067 0.0922 0.0055 0 0 0 0 0.0266 0 0 0 0 0 0.0228 0 0 0 0 0 0.015 0 0 0 0 -0.0067 0.0925 -0.0113 0 0 0 0 0.0247 0 0 0 0 0 0.0221 0 0 0 0 0 0.018 0 0 0 0 -0.0066 0.0935 -0.0272 0 0 0 0 0.0163 0 0 0 0 0 0.0171 0 0 0 0 0 0.018 0 0 0 0 -5.96046e-06 35.6457 -2.38419e-05 31.5471 -8.53774e-07 6.19987 -19.2518 4.47035e-06 4.76837e-05 31.8212 50.8229 10.5215 -24.4816 -2.38419e-05 -1.19209e-05 -4.62978e-07 8.53773e-07 28.4698 -28.652 2.38419e-05 -1.19209e-05 5.62847 0.0384614 2.13444 -0.0062 0.0497 0.0339 0 0 0 0 0.0215 0 0 0 0 0 0.022 0 0 0 0 0 0.017 0 0 0 0 0.0068 0.0873 0.0207 0 0 0 0 0.0267 0 0 0 0 0 0.0213 0 0 0 0 0 0.018 0 0 0 0 0.0067 0.0922 0.0055 0 0 0 0 0.0266 0 0 0 0 0 0.0228 0 0 0 0 0 0.015 0 0 0 0 0.0067 0.0925 -0.0113 0 0 0 0 0.0247 0 0 0 0 0 0.0221 0 0 0 0 0 0.018 0 0 0 0 0.0066 0.0935 -0.0272 0 0 0 0 0.0163 0 0 0 0 0 0.0171 0 0 0 0 0 0.018 0 0 0 0 -5.96046e-06 35.6457 -2.38419e-05 -7.39882 8.78739 1.13649 0 19.1841 -4.76837e-05 8.32429e-06 -1.13125e-05 5.12264e-06 
